<?xml version="1.0" encoding="UTF-8" standalone="no"?>
<!-- Created with Inkscape (http://www.inkscape.org/) -->

<svg
   xmlns:dc="http://purl.org/dc/elements/1.1/"
   xmlns:cc="http://creativecommons.org/ns#"
   xmlns:rdf="http://www.w3.org/1999/02/22-rdf-syntax-ns#"
   xmlns:svg="http://www.w3.org/2000/svg"
   xmlns="http://www.w3.org/2000/svg"
   xmlns:sodipodi="http://sodipodi.sourceforge.net/DTD/sodipodi-0.dtd"
   xmlns:inkscape="http://www.inkscape.org/namespaces/inkscape"
   width="400"
   height="120"
   id="svg2"
   version="1.1"
   inkscape:version="0.47pre4 r22446"
   sodipodi:docname="dwoods.svg"
   inkscape:export-filename="/home/noah/dwoods.png"
   inkscape:export-xdpi="112.5"
   inkscape:export-ydpi="112.5">
  <sodipodi:namedview
     id="base"
     pagecolor="#ffffff"
     bordercolor="#666666"
     borderopacity="1.0"
     inkscape:pageopacity="0.0"
     inkscape:pageshadow="2"
     inkscape:zoom="2"
     inkscape:cx="230.5"
     inkscape:cy="42.75"
     inkscape:document-units="px"
     inkscape:current-layer="layer1"
     showgrid="false"
     inkscape:window-width="1920"
     inkscape:window-height="1101"
     inkscape:window-x="0"
     inkscape:window-y="25"
     inkscape:window-maximized="1" />
  <defs
     id="defs4">
    <inkscape:perspective
       id="perspective10"
       inkscape:persp3d-origin="372.04724 : 350.78739 : 1"
       inkscape:vp_z="744.09448 : 526.18109 : 1"
       inkscape:vp_y="0 : 1000 : 0"
       inkscape:vp_x="0 : 526.18109 : 1"
       sodipodi:type="inkscape:persp3d" />
  </defs>
  <metadata
     id="metadata7">
    <rdf:RDF>
      <cc:Work
         rdf:about="">
        <dc:format>image/svg+xml</dc:format>
        <dc:type
           rdf:resource="http://purl.org/dc/dcmitype/StillImage" />
        <dc:title />
      </cc:Work>
    </rdf:RDF>
  </metadata>
  <g
     transform="translate(-28.010145,-918.02667)"
     id="layer1"
     inkscape:groupmode="layer"
     inkscape:label="Layer 1">
    <text
       xml:space="preserve"
       style="font-size:40px;font-style:normal;font-variant:normal;font-weight:normal;font-stretch:normal;fill:#445500;fill-opacity:1;stroke:none;font-family:Purisa;-inkscape-font-specification:Purisa"
       x="28.700287"
       y="1009.9522"
       id="text5854"><tspan
         sodipodi:role="line"
         x="28.700287"
         y="1009.9522"
         id="tspan5858">Dreaming</tspan></text>
    <text
       xml:space="preserve"
       style="font-size:40px;font-style:normal;font-variant:normal;font-weight:normal;font-stretch:normal;fill:#222b00;fill-opacity:1;stroke:none;font-family:Purisa;-inkscape-font-specification:Purisa"
       x="243.80243"
       y="1015.3922"
       id="text5862"><tspan
         sodipodi:role="line"
         id="tspan5864"
         x="243.80243"
         y="1015.3922">Woods</tspan></text>
    <path
       style="font-size:medium;font-style:normal;font-variant:normal;font-weight:normal;font-stretch:normal;text-indent:0;text-align:start;text-decoration:none;line-height:normal;letter-spacing:normal;word-spacing:normal;text-transform:none;direction:ltr;block-progression:tb;writing-mode:lr-tb;text-anchor:start;color:#000000;fill:#668000;fill-opacity:1;stroke:none;stroke-width:1px;marker:none;visibility:visible;display:inline;overflow:visible;enable-background:accumulate;font-family:'10.15 Saturday Night BRK';-inkscape-font-specification:'10.15 Saturday Night BRK'"
       d="m 234.11567,922.41761 c -15.98281,0.53377 -37.59485,22.10124 -32.44557,37.66169 3.68405,13.70623 29.49336,17.42813 41.85182,9.46331 11.19864,-5.98579 14.03312,-23.22302 4,-31.65625 -8.34932,-8.5981 -26.77876,-3.76421 -29.10217,8.19031 -2.96757,9.79071 10.53278,19.84916 19.57092,14.09094 4.31233,-2.32697 6.10337,-7.83012 4.1875,-12.34375 -3.74819,0.28497 -6.06303,-1.35235 -5.53687,1.95471 -1.50949,5.7724 -9.20573,7.66918 -10.90063,2.42029 -4.14138,-8.70225 7.40253,-17.37892 15.25,-12.71875 10.21504,4.54461 10.00638,20.23327 0.5625,25.34375 -10.8327,7.74297 -34.56331,1.7753 -32.5395,-13.87219 -1.8835,-15.24278 20.95566,-28.14949 34.82075,-22.12781 14.61065,5.06704 20.61879,24.87517 11.5625,37.28125 -4.87939,7.58902 -16.52937,12.28022 -25.45154,12.53132 -0.11139,1.0847 5.80169,42.24767 5.86558,42.94497 0.0862,0.941 1.95401,6.169 2.68182,-4.2379 0.69407,-9.9244 0.21637,-35.47247 1.60285,-35.99677 18.29729,-2.4995 35.32341,-21.50676 28.65607,-39.25865 -3.96505,-12.09542 -21.81627,-20.58203 -34.63605,-19.67047 l 2e-5,0 z"
       id="path5874"
       sodipodi:nodetypes="cccccccccccccccsscccc" />
    <text
       xml:space="preserve"
       style="font-size:13px;font-style:normal;font-variant:normal;font-weight:normal;font-stretch:normal;fill:#24221c;fill-opacity:1;stroke:none;font-family:Circulate BRK;-inkscape-font-specification:Circulate BRK"
       x="329.50281"
       y="1030.4397"
       id="text5882"><tspan
         sodipodi:role="line"
         id="tspan5884"
         x="329.50281"
         y="1030.4397">Productions</tspan></text>
  </g>
</svg>
